<?xml version="1.0" standalone="no"?>
<!DOCTYPE svg PUBLIC "-//W3C//DTD SVG 20010904//EN"
 "http://www.w3.org/TR/2001/REC-SVG-20010904/DTD/svg10.dtd">
<svg version="1.0" xmlns="http://www.w3.org/2000/svg"
 width="601.000000pt" height="601.000000pt" viewBox="0 0 601.000000 601.000000"
 preserveAspectRatio="xMidYMid meet">
<metadata>
Created by potrace 1.14, written by Peter Selinger 2001-2017
</metadata>
<g transform="translate(0.000000,601.000000) scale(0.100000,-0.100000)"
fill="#000000" stroke="none">
<path d="M3945 4344 c-373 -65 -662 -272 -833 -594 -253 -477 -224 -1168 65
-1593 188 -274 498 -459 835 -495 396 -43 728 83 940 357 l26 34 15 -54 c9
-30 30 -107 47 -172 l32 -117 109 0 109 0 -2 688 -3 687 -555 0 -555 0 -3
-142 -3 -143 397 0 396 0 -7 -102 c-18 -258 -85 -420 -233 -560 -127 -120
-292 -185 -492 -195 -489 -24 -853 300 -935 832 -21 133 -16 390 9 530 38 207
121 385 239 511 184 197 438 284 745 254 127 -12 195 -31 294 -82 154 -80 271
-235 318 -425 l10 -42 170 0 c126 0 170 3 170 12 0 42 -58 218 -100 303 -136
274 -386 450 -727 509 -108 19 -369 18 -478 -1z"/>
<path d="M1555 4298 c-3 -7 -216 -588 -475 -1292 -258 -703 -470 -1282 -470
-1287 0 -6 71 -8 166 -7 l167 3 138 390 c76 215 139 391 139 393 0 1 233 2
518 2 l517 0 136 -393 136 -392 181 -3 182 -2 -11 27 c-6 16 -219 593 -474
1283 -255 690 -467 1263 -470 1273 -6 15 -25 17 -191 17 -139 0 -186 -3 -189
-12z m231 -415 c30 -98 348 -1040 369 -1095 7 -17 -17 -18 -414 -18 -232 0
-421 2 -421 5 0 2 76 219 169 482 93 263 188 538 211 611 23 72 43 132 45 132
2 0 20 -53 41 -117z"/>
</g>
</svg>
